<svg width="800" height="572" viewBox="0 0 800 572" fill="none" xmlns="http://www.w3.org/2000/svg">
<path d="M775.51 0.285645H24.4898C10.9649 0.285645 0 11.2505 0 24.7754V171.714C0 185.239 10.9649 196.204 24.4898 196.204H48.9796V547.224C48.9796 560.749 59.9445 571.714 73.4694 571.714H726.532C740.057 571.714 751.022 560.749 751.022 547.224V196.204H775.51C789.035 196.204 800 185.239 800 171.714V24.7754C800 11.2505 789.035 0.285645 775.51 0.285645ZM702.042 522.735H97.9592V196.204H702.042V522.735ZM751.02 147.224H48.9796V49.2652H751.02V147.224ZM302.033 392.122H497.969C511.494 392.122 522.459 381.157 522.459 367.633V269.673C522.459 256.149 511.494 245.184 497.969 245.184H302.033C288.508 245.184 277.543 256.149 277.543 269.673V367.633C277.543 381.157 288.508 392.122 302.033 392.122ZM326.522 294.163H473.479V343.143H326.522V294.163Z" fill="#FDFDFD"/>
</svg>
